<svg width="505" height="258" viewBox="0 0 505 258" fill="none" xmlns="http://www.w3.org/2000/svg">
<line x1="2.26367" y1="34.5" x2="441.745" y2="34.5" stroke="#8E8E93" stroke-dasharray="8 8"/>
<line x1="2.26367" y1="98.5" x2="440.438" y2="98.5" stroke="#8E8E93" stroke-dasharray="8 8"/>
<line x1="7.49561" y1="170.5" x2="437.822" y2="170.5" stroke="#8E8E93" stroke-dasharray="8 8"/>
<path d="M460.498 29.4375L455.787 40H454.272L458.967 29.8125H452.811V28.625H460.498V29.4375ZM469.432 35.1484C469.432 36.8411 469.143 38.099 468.565 38.9219C467.987 39.7448 467.083 40.1562 465.854 40.1562C464.64 40.1562 463.742 39.7552 463.158 38.9531C462.575 38.1458 462.273 36.9427 462.252 35.3438V33.4141C462.252 31.7422 462.541 30.5 463.119 29.6875C463.697 28.875 464.604 28.4688 465.838 28.4688C467.062 28.4688 467.963 28.862 468.541 29.6484C469.119 30.4297 469.416 31.638 469.432 33.2734V35.1484ZM467.987 33.1719C467.987 31.9479 467.815 31.0573 467.471 30.5C467.127 29.9375 466.583 29.6562 465.838 29.6562C465.099 29.6562 464.559 29.9349 464.221 30.4922C463.882 31.0495 463.708 31.9062 463.697 33.0625V35.375C463.697 36.6042 463.875 37.513 464.229 38.1016C464.588 38.6849 465.13 38.9766 465.854 38.9766C466.567 38.9766 467.096 38.7005 467.44 38.1484C467.789 37.5964 467.971 36.7266 467.987 35.5391V33.1719ZM478.787 29.4375L474.076 40H472.561L477.256 29.8125H471.1V28.625H478.787V29.4375Z" fill="#4F4F4F"/>
<path d="M459.256 100.18H460.834V101.359H459.256V104H457.803V101.359H452.623V100.508L457.717 92.625H459.256V100.18ZM454.264 100.18H457.803V94.6016L457.631 94.9141L454.264 100.18ZM469.432 99.1484C469.432 100.841 469.143 102.099 468.565 102.922C467.987 103.745 467.083 104.156 465.854 104.156C464.64 104.156 463.742 103.755 463.158 102.953C462.575 102.146 462.273 100.943 462.252 99.3438V97.4141C462.252 95.7422 462.541 94.5 463.119 93.6875C463.697 92.875 464.604 92.4688 465.838 92.4688C467.062 92.4688 467.963 92.862 468.541 93.6484C469.119 94.4297 469.416 95.638 469.432 97.2734V99.1484ZM467.987 97.1719C467.987 95.9479 467.815 95.0573 467.471 94.5C467.127 93.9375 466.583 93.6562 465.838 93.6562C465.099 93.6562 464.559 93.9349 464.221 94.4922C463.882 95.0495 463.708 95.9062 463.697 97.0625V99.375C463.697 100.604 463.875 101.513 464.229 102.102C464.588 102.685 465.13 102.977 465.854 102.977C466.567 102.977 467.096 102.701 467.44 102.148C467.789 101.596 467.971 100.727 467.987 99.5391V97.1719ZM478.576 99.1484C478.576 100.841 478.287 102.099 477.709 102.922C477.131 103.745 476.227 104.156 474.998 104.156C473.785 104.156 472.886 103.755 472.303 102.953C471.719 102.146 471.417 100.943 471.397 99.3438V97.4141C471.397 95.7422 471.686 94.5 472.264 93.6875C472.842 92.875 473.748 92.4688 474.982 92.4688C476.206 92.4688 477.107 92.862 477.686 93.6484C478.264 94.4297 478.561 95.638 478.576 97.2734V99.1484ZM477.131 97.1719C477.131 95.9479 476.959 95.0573 476.615 94.5C476.272 93.9375 475.727 93.6562 474.982 93.6562C474.243 93.6562 473.704 93.9349 473.365 94.4922C473.027 95.0495 472.852 95.9062 472.842 97.0625V99.375C472.842 100.604 473.019 101.513 473.373 102.102C473.732 102.685 474.274 102.977 474.998 102.977C475.712 102.977 476.24 102.701 476.584 102.148C476.933 101.596 477.115 100.727 477.131 99.5391V97.1719Z" fill="#4F4F4F"/>
<path d="M57.8525 254H50.3994V252.961L54.3369 248.586C54.9202 247.924 55.3212 247.388 55.54 246.977C55.7639 246.56 55.8759 246.13 55.8759 245.688C55.8759 245.094 55.6962 244.607 55.3369 244.227C54.9775 243.846 54.4983 243.656 53.8994 243.656C53.1806 243.656 52.6207 243.862 52.2197 244.273C51.8238 244.68 51.6259 245.247 51.6259 245.977H50.1806C50.1806 244.93 50.5166 244.083 51.1884 243.438C51.8655 242.792 52.7692 242.469 53.8994 242.469C54.9567 242.469 55.7926 242.747 56.4072 243.305C57.0218 243.857 57.3291 244.594 57.3291 245.516C57.3291 246.635 56.6155 247.969 55.1884 249.516L52.1416 252.82H57.8525V254ZM66.6766 249.148C66.6766 250.841 66.3875 252.099 65.8094 252.922C65.2312 253.745 64.3276 254.156 63.0984 254.156C61.8849 254.156 60.9864 253.755 60.4031 252.953C59.8198 252.146 59.5177 250.943 59.4969 249.344V247.414C59.4969 245.742 59.7859 244.5 60.3641 243.688C60.9422 242.875 61.8484 242.469 63.0828 242.469C64.3068 242.469 65.2078 242.862 65.7859 243.648C66.3641 244.43 66.6609 245.638 66.6766 247.273V249.148ZM65.2312 247.172C65.2312 245.948 65.0594 245.057 64.7156 244.5C64.3719 243.938 63.8276 243.656 63.0828 243.656C62.3432 243.656 61.8042 243.935 61.4656 244.492C61.1271 245.049 60.9526 245.906 60.9422 247.062V249.375C60.9422 250.604 61.1193 251.513 61.4734 252.102C61.8328 252.685 62.3745 252.977 63.0984 252.977C63.812 252.977 64.3406 252.701 64.6844 252.148C65.0333 251.596 65.2156 250.727 65.2312 249.539V247.172ZM73.4381 254H71.985V244.367L69.0709 245.438V244.125L73.2116 242.57H73.4381V254ZM83.3716 249C83.0695 249.359 82.7075 249.648 82.2856 249.867C81.8689 250.086 81.4106 250.195 80.9106 250.195C80.2544 250.195 79.6814 250.034 79.1919 249.711C78.7075 249.388 78.3325 248.935 78.0669 248.352C77.8012 247.763 77.6684 247.115 77.6684 246.406C77.6684 245.646 77.8117 244.961 78.0981 244.352C78.3898 243.742 78.8012 243.276 79.3325 242.953C79.8637 242.63 80.4835 242.469 81.1919 242.469C82.3169 242.469 83.2023 242.891 83.8481 243.734C84.4992 244.573 84.8247 245.719 84.8247 247.172V247.594C84.8247 249.807 84.3872 251.424 83.5122 252.445C82.6372 253.461 81.3169 253.982 79.5512 254.008H79.27V252.789H79.5747C80.7674 252.768 81.6841 252.458 82.3247 251.859C82.9653 251.255 83.3143 250.302 83.3716 249ZM81.145 249C81.6294 249 82.0747 248.852 82.4809 248.555C82.8924 248.258 83.1919 247.891 83.3794 247.453V246.875C83.3794 245.927 83.1736 245.156 82.7622 244.562C82.3507 243.969 81.8299 243.672 81.1997 243.672C80.5643 243.672 80.0538 243.917 79.6684 244.406C79.283 244.891 79.0903 245.531 79.0903 246.328C79.0903 247.104 79.2752 247.745 79.645 248.25C80.02 248.75 80.52 249 81.145 249Z" fill="#4F4F4F"/>
<path d="M162.491 254H155.038V252.961L158.975 248.586C159.559 247.924 159.96 247.388 160.178 246.977C160.402 246.56 160.514 246.13 160.514 245.688C160.514 245.094 160.335 244.607 159.975 244.227C159.616 243.846 159.137 243.656 158.538 243.656C157.819 243.656 157.259 243.862 156.858 244.273C156.462 244.68 156.264 245.247 156.264 245.977H154.819C154.819 244.93 155.155 244.083 155.827 243.438C156.504 242.792 157.408 242.469 158.538 242.469C159.595 242.469 160.431 242.747 161.046 243.305C161.66 243.857 161.967 244.594 161.967 245.516C161.967 246.635 161.254 247.969 159.827 249.516L156.78 252.82H162.491V254ZM171.315 249.148C171.315 250.841 171.026 252.099 170.448 252.922C169.87 253.745 168.966 254.156 167.737 254.156C166.523 254.156 165.625 253.755 165.042 252.953C164.458 252.146 164.156 250.943 164.135 249.344V247.414C164.135 245.742 164.424 244.5 165.002 243.688C165.581 242.875 166.487 242.469 167.721 242.469C168.945 242.469 169.846 242.862 170.424 243.648C171.002 244.43 171.299 245.638 171.315 247.273V249.148ZM169.87 247.172C169.87 245.948 169.698 245.057 169.354 244.5C169.01 243.938 168.466 243.656 167.721 243.656C166.982 243.656 166.443 243.935 166.104 244.492C165.766 245.049 165.591 245.906 165.581 247.062V249.375C165.581 250.604 165.758 251.513 166.112 252.102C166.471 252.685 167.013 252.977 167.737 252.977C168.45 252.977 168.979 252.701 169.323 252.148C169.672 251.596 169.854 250.727 169.87 249.539V247.172ZM180.78 254H173.327V252.961L177.264 248.586C177.847 247.924 178.248 247.388 178.467 246.977C178.691 246.56 178.803 246.13 178.803 245.688C178.803 245.094 178.623 244.607 178.264 244.227C177.905 243.846 177.426 243.656 176.827 243.656C176.108 243.656 175.548 243.862 175.147 244.273C174.751 244.68 174.553 245.247 174.553 245.977H173.108C173.108 244.93 173.444 244.083 174.116 243.438C174.793 242.792 175.696 242.469 176.827 242.469C177.884 242.469 178.72 242.747 179.334 243.305C179.949 243.857 180.256 244.594 180.256 245.516C180.256 246.635 179.543 247.969 178.116 249.516L175.069 252.82H180.78V254ZM189.604 249.148C189.604 250.841 189.315 252.099 188.737 252.922C188.158 253.745 187.255 254.156 186.026 254.156C184.812 254.156 183.914 253.755 183.33 252.953C182.747 252.146 182.445 250.943 182.424 249.344V247.414C182.424 245.742 182.713 244.5 183.291 243.688C183.869 242.875 184.776 242.469 186.01 242.469C187.234 242.469 188.135 242.862 188.713 243.648C189.291 244.43 189.588 245.638 189.604 247.273V249.148ZM188.158 247.172C188.158 245.948 187.987 245.057 187.643 244.5C187.299 243.938 186.755 243.656 186.01 243.656C185.27 243.656 184.731 243.935 184.393 244.492C184.054 245.049 183.88 245.906 183.869 247.062V249.375C183.869 250.604 184.046 251.513 184.401 252.102C184.76 252.685 185.302 252.977 186.026 252.977C186.739 252.977 187.268 252.701 187.612 252.148C187.961 251.596 188.143 250.727 188.158 249.539V247.172Z" fill="#4F4F4F"/>
<path d="M265.821 254H258.368V252.961L262.306 248.586C262.889 247.924 263.29 247.388 263.509 246.977C263.733 246.56 263.845 246.13 263.845 245.688C263.845 245.094 263.665 244.607 263.306 244.227C262.946 243.846 262.467 243.656 261.868 243.656C261.15 243.656 260.59 243.862 260.189 244.273C259.793 244.68 259.595 245.247 259.595 245.977H258.15C258.15 244.93 258.486 244.083 259.157 243.438C259.835 242.792 260.738 242.469 261.868 242.469C262.926 242.469 263.762 242.747 264.376 243.305C264.991 243.857 265.298 244.594 265.298 245.516C265.298 246.635 264.585 247.969 263.157 249.516L260.111 252.82H265.821V254ZM274.646 249.148C274.646 250.841 274.356 252.099 273.778 252.922C273.2 253.745 272.297 254.156 271.067 254.156C269.854 254.156 268.955 253.755 268.372 252.953C267.789 252.146 267.487 250.943 267.466 249.344V247.414C267.466 245.742 267.755 244.5 268.333 243.688C268.911 242.875 269.817 242.469 271.052 242.469C272.276 242.469 273.177 242.862 273.755 243.648C274.333 244.43 274.63 245.638 274.646 247.273V249.148ZM273.2 247.172C273.2 245.948 273.028 245.057 272.685 244.5C272.341 243.938 271.797 243.656 271.052 243.656C270.312 243.656 269.773 243.935 269.435 244.492C269.096 245.049 268.922 245.906 268.911 247.062V249.375C268.911 250.604 269.088 251.513 269.442 252.102C269.802 252.685 270.343 252.977 271.067 252.977C271.781 252.977 272.31 252.701 272.653 252.148C273.002 251.596 273.185 250.727 273.2 249.539V247.172ZM284.11 254H276.657V252.961L280.595 248.586C281.178 247.924 281.579 247.388 281.798 246.977C282.022 246.56 282.134 246.13 282.134 245.688C282.134 245.094 281.954 244.607 281.595 244.227C281.235 243.846 280.756 243.656 280.157 243.656C279.438 243.656 278.878 243.862 278.477 244.273C278.082 244.68 277.884 245.247 277.884 245.977H276.438C276.438 244.93 276.774 244.083 277.446 243.438C278.123 242.792 279.027 242.469 280.157 242.469C281.214 242.469 282.05 242.747 282.665 243.305C283.28 243.857 283.587 244.594 283.587 245.516C283.587 246.635 282.873 247.969 281.446 249.516L278.399 252.82H284.11V254ZM290.551 254H289.098V244.367L286.184 245.438V244.125L290.325 242.57H290.551V254Z" fill="#4F4F4F"/>
<path d="M371.768 254H364.315V252.961L368.252 248.586C368.836 247.924 369.237 247.388 369.456 246.977C369.679 246.56 369.791 246.13 369.791 245.688C369.791 245.094 369.612 244.607 369.252 244.227C368.893 243.846 368.414 243.656 367.815 243.656C367.096 243.656 366.536 243.862 366.135 244.273C365.739 244.68 365.541 245.247 365.541 245.977H364.096C364.096 244.93 364.432 244.083 365.104 243.438C365.781 242.792 366.685 242.469 367.815 242.469C368.872 242.469 369.708 242.747 370.323 243.305C370.937 243.857 371.245 244.594 371.245 245.516C371.245 246.635 370.531 247.969 369.104 249.516L366.057 252.82H371.768V254ZM380.592 249.148C380.592 250.841 380.303 252.099 379.725 252.922C379.147 253.745 378.243 254.156 377.014 254.156C375.8 254.156 374.902 253.755 374.319 252.953C373.735 252.146 373.433 250.943 373.412 249.344V247.414C373.412 245.742 373.701 244.5 374.28 243.688C374.858 242.875 375.764 242.469 376.998 242.469C378.222 242.469 379.123 242.862 379.701 243.648C380.28 244.43 380.576 245.638 380.592 247.273V249.148ZM379.147 247.172C379.147 245.948 378.975 245.057 378.631 244.5C378.287 243.938 377.743 243.656 376.998 243.656C376.259 243.656 375.72 243.935 375.381 244.492C375.043 245.049 374.868 245.906 374.858 247.062V249.375C374.858 250.604 375.035 251.513 375.389 252.102C375.748 252.685 376.29 252.977 377.014 252.977C377.727 252.977 378.256 252.701 378.6 252.148C378.949 251.596 379.131 250.727 379.147 249.539V247.172ZM390.057 254H382.604V252.961L386.541 248.586C387.124 247.924 387.526 247.388 387.744 246.977C387.968 246.56 388.08 246.13 388.08 245.688C388.08 245.094 387.901 244.607 387.541 244.227C387.182 243.846 386.703 243.656 386.104 243.656C385.385 243.656 384.825 243.862 384.424 244.273C384.028 244.68 383.83 245.247 383.83 245.977H382.385C382.385 244.93 382.721 244.083 383.393 243.438C384.07 242.792 384.973 242.469 386.104 242.469C387.161 242.469 387.997 242.747 388.611 243.305C389.226 243.857 389.533 244.594 389.533 245.516C389.533 246.635 388.82 247.969 387.393 249.516L384.346 252.82H390.057V254ZM399.201 254H391.748V252.961L395.686 248.586C396.269 247.924 396.67 247.388 396.889 246.977C397.113 246.56 397.225 246.13 397.225 245.688C397.225 245.094 397.045 244.607 396.686 244.227C396.326 243.846 395.847 243.656 395.248 243.656C394.529 243.656 393.969 243.862 393.568 244.273C393.172 244.68 392.975 245.247 392.975 245.977H391.529C391.529 244.93 391.865 244.083 392.537 243.438C393.214 242.792 394.118 242.469 395.248 242.469C396.305 242.469 397.141 242.747 397.756 243.305C398.37 243.857 398.678 244.594 398.678 245.516C398.678 246.635 397.964 247.969 396.537 249.516L393.49 252.82H399.201V254Z" fill="#4F4F4F"/>
<path d="M460.608 171H453.155V169.961L457.092 165.586C457.675 164.924 458.077 164.388 458.295 163.977C458.519 163.56 458.631 163.13 458.631 162.688C458.631 162.094 458.452 161.607 458.092 161.227C457.733 160.846 457.254 160.656 456.655 160.656C455.936 160.656 455.376 160.862 454.975 161.273C454.579 161.68 454.381 162.247 454.381 162.977H452.936C452.936 161.93 453.272 161.083 453.944 160.438C454.621 159.792 455.524 159.469 456.655 159.469C457.712 159.469 458.548 159.747 459.162 160.305C459.777 160.857 460.084 161.594 460.084 162.516C460.084 163.635 459.371 164.969 457.944 166.516L454.897 169.82H460.608V171ZM469.432 166.148C469.432 167.841 469.143 169.099 468.565 169.922C467.987 170.745 467.083 171.156 465.854 171.156C464.64 171.156 463.742 170.755 463.158 169.953C462.575 169.146 462.273 167.943 462.252 166.344V164.414C462.252 162.742 462.541 161.5 463.119 160.688C463.697 159.875 464.604 159.469 465.838 159.469C467.062 159.469 467.963 159.862 468.541 160.648C469.119 161.43 469.416 162.638 469.432 164.273V166.148ZM467.987 164.172C467.987 162.948 467.815 162.057 467.471 161.5C467.127 160.938 466.583 160.656 465.838 160.656C465.099 160.656 464.559 160.935 464.221 161.492C463.882 162.049 463.708 162.906 463.697 164.062V166.375C463.697 167.604 463.875 168.513 464.229 169.102C464.588 169.685 465.13 169.977 465.854 169.977C466.567 169.977 467.096 169.701 467.44 169.148C467.789 168.596 467.971 167.727 467.987 166.539V164.172ZM478.576 166.148C478.576 167.841 478.287 169.099 477.709 169.922C477.131 170.745 476.227 171.156 474.998 171.156C473.785 171.156 472.886 170.755 472.303 169.953C471.719 169.146 471.417 167.943 471.397 166.344V164.414C471.397 162.742 471.686 161.5 472.264 160.688C472.842 159.875 473.748 159.469 474.982 159.469C476.206 159.469 477.107 159.862 477.686 160.648C478.264 161.43 478.561 162.638 478.576 164.273V166.148ZM477.131 164.172C477.131 162.948 476.959 162.057 476.615 161.5C476.272 160.938 475.727 160.656 474.982 160.656C474.243 160.656 473.704 160.935 473.365 161.492C473.027 162.049 472.852 162.906 472.842 164.062V166.375C472.842 167.604 473.019 168.513 473.373 169.102C473.732 169.685 474.274 169.977 474.998 169.977C475.712 169.977 476.24 169.701 476.584 169.148C476.933 168.596 477.115 167.727 477.131 166.539V164.172Z" fill="#4F4F4F"/>
<path d="M460.287 226.148C460.287 227.841 459.998 229.099 459.42 229.922C458.842 230.745 457.939 231.156 456.709 231.156C455.496 231.156 454.597 230.755 454.014 229.953C453.431 229.146 453.129 227.943 453.108 226.344V224.414C453.108 222.742 453.397 221.5 453.975 220.688C454.553 219.875 455.459 219.469 456.694 219.469C457.918 219.469 458.819 219.862 459.397 220.648C459.975 221.43 460.272 222.638 460.287 224.273V226.148ZM458.842 224.172C458.842 222.948 458.67 222.057 458.327 221.5C457.983 220.938 457.439 220.656 456.694 220.656C455.954 220.656 455.415 220.935 455.077 221.492C454.738 222.049 454.564 222.906 454.553 224.062V226.375C454.553 227.604 454.73 228.513 455.084 229.102C455.444 229.685 455.985 229.977 456.709 229.977C457.423 229.977 457.952 229.701 458.295 229.148C458.644 228.596 458.827 227.727 458.842 226.539V224.172Z" fill="#4F4F4F"/>
<path d="M387.382 60L441.745 35V133H2.26367V116.5L113.279 109L181.948 73.5L212.276 67.5L238.027 60H349.615H387.382Z" fill="#F4A26C" stroke="white" stroke-width="3"/>
<path d="M387.382 105.5L441.745 99V178.5L2.26367 219V129.5L112.134 119L177.37 129.5L212.276 113L242.033 119H348.47L387.382 105.5Z" fill="#3FAEA3" stroke="white" stroke-width="3"/>
<path d="M386.238 147.153L441.745 138V228H2.26367V214.78L112.134 197.492H175.653L212.276 161.39L248.9 179.186L348.47 167.492L386.238 147.153Z" fill="#914DF0" stroke="white" stroke-width="3"/>
<line y1="-1" x2="439.483" y2="-1" transform="matrix(0.999997 0.00224402 -0.0039472 0.999992 2.26367 227)" stroke="#8E8E93" stroke-width="2"/>
<path d="M461.389 3.85938H457.733V14H456.241V3.85938H452.592V2.625H461.389V3.85938ZM461.846 9.69531C461.846 8.86719 462.007 8.1224 462.33 7.46094C462.658 6.79948 463.112 6.28906 463.69 5.92969C464.273 5.57031 464.937 5.39062 465.682 5.39062C466.833 5.39062 467.763 5.78906 468.471 6.58594C469.184 7.38281 469.541 8.44271 469.541 9.76562V9.86719C469.541 10.6901 469.382 11.4297 469.065 12.0859C468.752 12.737 468.302 13.2448 467.713 13.6094C467.13 13.974 466.458 14.1562 465.697 14.1562C464.552 14.1562 463.622 13.7578 462.908 12.9609C462.2 12.1641 461.846 11.1094 461.846 9.79688V9.69531ZM463.299 9.86719C463.299 10.8047 463.515 11.5573 463.947 12.125C464.385 12.6927 464.968 12.9766 465.697 12.9766C466.432 12.9766 467.015 12.6901 467.447 12.1172C467.88 11.5391 468.096 10.7318 468.096 9.69531C468.096 8.76823 467.875 8.01823 467.432 7.44531C466.994 6.86719 466.411 6.57812 465.682 6.57812C464.968 6.57812 464.393 6.86198 463.955 7.42969C463.518 7.9974 463.299 8.8099 463.299 9.86719ZM473.475 3.5V5.54688H475.053V6.66406H473.475V11.9062C473.475 12.2448 473.545 12.5 473.686 12.6719C473.826 12.8385 474.066 12.9219 474.404 12.9219C474.571 12.9219 474.8 12.8906 475.092 12.8281V14C474.712 14.1042 474.342 14.1562 473.982 14.1562C473.337 14.1562 472.85 13.9609 472.522 13.5703C472.193 13.1797 472.029 12.625 472.029 11.9062V6.66406H470.49V5.54688H472.029V3.5H473.475ZM482.127 14C482.044 13.8333 481.976 13.5365 481.924 13.1094C481.252 13.8073 480.45 14.1562 479.517 14.1562C478.684 14.1562 477.999 13.9219 477.463 13.4531C476.932 12.9792 476.666 12.3802 476.666 11.6562C476.666 10.776 476.999 10.0938 477.666 9.60938C478.338 9.11979 479.28 8.875 480.494 8.875H481.9V8.21094C481.9 7.70573 481.749 7.30469 481.447 7.00781C481.145 6.70573 480.7 6.55469 480.111 6.55469C479.596 6.55469 479.163 6.6849 478.814 6.94531C478.465 7.20573 478.291 7.52083 478.291 7.89062H476.838C476.838 7.46875 476.986 7.0625 477.283 6.67188C477.585 6.27604 477.991 5.96354 478.502 5.73438C479.017 5.50521 479.583 5.39062 480.197 5.39062C481.171 5.39062 481.934 5.63542 482.486 6.125C483.038 6.60938 483.325 7.27865 483.346 8.13281V12.0234C483.346 12.7995 483.445 13.4167 483.642 13.875V14H482.127ZM479.728 12.8984C480.182 12.8984 480.611 12.7812 481.017 12.5469C481.424 12.3125 481.718 12.0078 481.9 11.6328V9.89844H480.767C478.997 9.89844 478.111 10.4167 478.111 11.4531C478.111 11.9062 478.262 12.2604 478.564 12.5156C478.866 12.7708 479.254 12.8984 479.728 12.8984ZM487.342 14H485.896V2H487.342V14Z" fill="#4F4F4F"/>
<line x1="67.3547" y1="227" x2="67.3547" y2="235" stroke="#8E8E93" stroke-width="2"/>
<line x1="171.993" y1="227" x2="171.993" y2="235" stroke="#8E8E93" stroke-width="2"/>
<line x1="276.632" y1="227" x2="276.632" y2="235" stroke="#8E8E93" stroke-width="2"/>
<line x1="381.27" y1="227" x2="381.27" y2="235" stroke="#8E8E93" stroke-width="2"/>
</svg>
