<svg width="35" height="32" viewBox="0 0 35 32" fill="none" xmlns="http://www.w3.org/2000/svg">
<g clip-path="url(#clip0_151_2403)">
<path opacity="0.3" d="M17.5 8.66602C11.9729 8.66602 7.04376 11.506 4.63751 15.9993C7.04376 20.4927 11.9583 23.3327 17.5 23.3327C23.0417 23.3327 27.9563 20.4927 30.3625 15.9993C27.9563 11.506 23.0271 8.66602 17.5 8.66602ZM17.5 21.9993C13.8833 21.9993 10.9375 19.306 10.9375 15.9993C10.9375 12.6927 13.8833 9.99935 17.5 9.99935C21.1167 9.99935 24.0625 12.6927 24.0625 15.9993C24.0625 19.306 21.1167 21.9993 17.5 21.9993Z" fill="#FFE7E7"/>
<path d="M17.5 6C10.2083 6 3.98123 10.1467 1.45831 16C3.98123 21.8533 10.2083 26 17.5 26C24.7916 26 31.0187 21.8533 33.5416 16C31.0187 10.1467 24.7916 6 17.5 6ZM17.5 23.3333C11.9729 23.3333 7.04373 20.4933 4.63748 16C7.04373 11.5067 11.9729 8.66667 17.5 8.66667C23.0271 8.66667 27.9562 11.5067 30.3625 16C27.9562 20.4933 23.0271 23.3333 17.5 23.3333ZM17.5 10C13.8833 10 10.9375 12.6933 10.9375 16C10.9375 19.3067 13.8833 22 17.5 22C21.1166 22 24.0625 19.3067 24.0625 16C24.0625 12.6933 21.1166 10 17.5 10ZM17.5 19.3333C15.4875 19.3333 13.8541 17.84 13.8541 16C13.8541 14.16 15.4875 12.6667 17.5 12.6667C19.5125 12.6667 21.1458 14.16 21.1458 16C21.1458 17.84 19.5125 19.3333 17.5 19.3333Z" fill="#4F4F4F"/>
</g>
<defs>
<clipPath id="clip0_151_2403">
<rect width="35" height="32" fill="white"/>
</clipPath>
</defs>
</svg>
