<svg width="92" height="32" viewBox="0 0 92 32" fill="none" xmlns="http://www.w3.org/2000/svg">
<path d="M15.6108 6.36V9.608H8.38681V13.92H14.9948V17.14H8.38681V24H4.13081V6.36H15.6108ZM31.664 17.196C31.664 18.2973 31.4773 19.2867 31.104 20.164C30.7493 21.0413 30.2547 21.788 29.62 22.404C28.9853 23.02 28.2387 23.496 27.38 23.832C26.5213 24.1493 25.5973 24.308 24.608 24.308C23.6187 24.308 22.6947 24.1587 21.836 23.86C20.996 23.5427 20.268 23.0947 19.652 22.516C19.036 21.9373 18.5507 21.228 18.196 20.388C17.8413 19.5293 17.664 18.5587 17.664 17.476C17.664 16.3373 17.8413 15.32 18.196 14.424C18.5693 13.528 19.0733 12.772 19.708 12.156C20.3427 11.54 21.0893 11.0733 21.948 10.756C22.8067 10.42 23.7307 10.252 24.72 10.252C25.7093 10.252 26.624 10.4013 27.464 10.7C28.3227 10.9987 29.06 11.4467 29.676 12.044C30.292 12.6227 30.7773 13.3413 31.132 14.2C31.4867 15.0587 31.664 16.0573 31.664 17.196ZM27.408 17.336C27.408 16.608 27.3333 15.992 27.184 15.488C27.0347 14.9653 26.8293 14.5453 26.568 14.228C26.3067 13.892 26.008 13.6493 25.672 13.5C25.336 13.3507 24.9907 13.276 24.636 13.276C24.2813 13.276 23.936 13.3413 23.6 13.472C23.2827 13.6027 22.9933 13.8267 22.732 14.144C22.4893 14.4613 22.2933 14.8813 22.144 15.404C21.9947 15.908 21.92 16.552 21.92 17.336C21.92 18.6987 22.2 19.6973 22.76 20.332C23.32 20.9667 23.964 21.284 24.692 21.284C25.0467 21.284 25.3827 21.2187 25.7 21.088C26.036 20.9387 26.3253 20.7147 26.568 20.416C26.8293 20.0987 27.0347 19.688 27.184 19.184C27.3333 18.68 27.408 18.064 27.408 17.336ZM48.3634 17.196C48.3634 18.2973 48.1767 19.2867 47.8034 20.164C47.4487 21.0413 46.954 21.788 46.3194 22.404C45.6847 23.02 44.938 23.496 44.0794 23.832C43.2207 24.1493 42.2967 24.308 41.3074 24.308C40.318 24.308 39.394 24.1587 38.5354 23.86C37.6954 23.5427 36.9674 23.0947 36.3514 22.516C35.7354 21.9373 35.25 21.228 34.8954 20.388C34.5407 19.5293 34.3634 18.5587 34.3634 17.476C34.3634 16.3373 34.5407 15.32 34.8954 14.424C35.2687 13.528 35.7727 12.772 36.4074 12.156C37.042 11.54 37.7887 11.0733 38.6474 10.756C39.506 10.42 40.43 10.252 41.4194 10.252C42.4087 10.252 43.3234 10.4013 44.1634 10.7C45.022 10.9987 45.7594 11.4467 46.3754 12.044C46.9914 12.6227 47.4767 13.3413 47.8314 14.2C48.186 15.0587 48.3634 16.0573 48.3634 17.196ZM44.1074 17.336C44.1074 16.608 44.0327 15.992 43.8834 15.488C43.734 14.9653 43.5287 14.5453 43.2674 14.228C43.006 13.892 42.7074 13.6493 42.3714 13.5C42.0354 13.3507 41.69 13.276 41.3354 13.276C40.9807 13.276 40.6354 13.3413 40.2994 13.472C39.982 13.6027 39.6927 13.8267 39.4314 14.144C39.1887 14.4613 38.9927 14.8813 38.8434 15.404C38.694 15.908 38.6194 16.552 38.6194 17.336C38.6194 18.6987 38.8994 19.6973 39.4594 20.332C40.0194 20.9667 40.6634 21.284 41.3914 21.284C41.746 21.284 42.082 21.2187 42.3994 21.088C42.7354 20.9387 43.0247 20.7147 43.2674 20.416C43.5287 20.0987 43.734 19.688 43.8834 19.184C44.0327 18.68 44.1074 18.064 44.1074 17.336ZM60.3308 3.98H64.4748V24H61.6188L61.1988 22.544H61.0588C60.7974 22.9547 60.3401 23.356 59.6868 23.748C59.0521 24.1213 58.2121 24.308 57.1668 24.308C56.2894 24.308 55.4774 24.1493 54.7308 23.832C53.9841 23.496 53.3401 23.0293 52.7988 22.432C52.2574 21.816 51.8281 21.0787 51.5108 20.22C51.2121 19.3427 51.0628 18.3627 51.0628 17.28C51.0628 16.216 51.2028 15.2547 51.4828 14.396C51.7628 13.5187 52.1641 12.7813 52.6868 12.184C53.2281 11.568 53.8908 11.092 54.6748 10.756C55.4588 10.42 56.3454 10.252 57.3348 10.252C57.9508 10.252 58.5294 10.3453 59.0708 10.532C59.6308 10.7 60.0508 10.9147 60.3308 11.176V3.98ZM60.3308 14.2C60.1628 13.976 59.9014 13.7613 59.5468 13.556C59.1921 13.3507 58.8001 13.248 58.3708 13.248C57.9414 13.248 57.5401 13.3227 57.1668 13.472C56.7934 13.6027 56.4574 13.8267 56.1588 14.144C55.8788 14.4613 55.6548 14.872 55.4868 15.376C55.3188 15.8613 55.2348 16.468 55.2348 17.196C55.2348 18.596 55.5054 19.632 56.0468 20.304C56.6068 20.9573 57.3254 21.284 58.2028 21.284C58.7441 21.284 59.1921 21.144 59.5468 20.864C59.9201 20.584 60.1814 20.2853 60.3308 19.968V14.2ZM67.1982 10.56H71.7342L73.9462 16.552L74.8422 19.828H74.9542L75.7942 16.496L77.7262 10.56H81.9542L77.1102 24.252C76.8489 25.0173 76.5409 25.764 76.1862 26.492C75.8315 27.22 75.3929 27.9013 74.8702 28.536C74.3662 29.1707 73.7502 29.7493 73.0222 30.272C72.2942 30.7947 71.4169 31.224 70.3902 31.56L68.6822 28.34C69.7835 27.948 70.6889 27.388 71.3982 26.66C72.1262 25.932 72.6115 25.092 72.8542 24.14L72.9102 23.916L67.1982 10.56Z" fill="#F5F5F5"/>
<path d="M84.2233 21.844C84.2233 21.1347 84.4566 20.556 84.9233 20.108C85.4086 19.6413 85.9779 19.408 86.6313 19.408C87.2846 19.408 87.8446 19.6413 88.3113 20.108C88.7779 20.556 89.0113 21.1347 89.0113 21.844C89.0113 22.6093 88.7779 23.216 88.3113 23.664C87.8446 24.0933 87.2846 24.308 86.6313 24.308C85.9779 24.308 85.4086 24.0933 84.9233 23.664C84.4566 23.216 84.2233 22.6093 84.2233 21.844Z" fill="#EAAB00"/>
</svg>
