<svg width="92" height="34" viewBox="0 0 92 34" fill="none" xmlns="http://www.w3.org/2000/svg">
<path d="M19.9521 8.88V11.664H13.7601V15.36H19.4241V18.12H13.7601V24H10.1121V8.88H19.9521ZM33.712 18.168C33.712 19.112 33.552 19.96 33.232 20.712C32.928 21.464 32.504 22.104 31.96 22.632C31.416 23.16 30.776 23.568 30.04 23.856C29.304 24.128 28.512 24.264 27.664 24.264C26.816 24.264 26.024 24.136 25.288 23.88C24.568 23.608 23.944 23.224 23.416 22.728C22.888 22.232 22.472 21.624 22.168 20.904C21.864 20.168 21.712 19.336 21.712 18.408C21.712 17.432 21.864 16.56 22.168 15.792C22.488 15.024 22.92 14.376 23.464 13.848C24.008 13.32 24.648 12.92 25.384 12.648C26.12 12.36 26.912 12.216 27.76 12.216C28.608 12.216 29.392 12.344 30.112 12.6C30.848 12.856 31.48 13.24 32.008 13.752C32.536 14.248 32.952 14.864 33.256 15.6C33.56 16.336 33.712 17.192 33.712 18.168ZM30.064 18.288C30.064 17.664 30 17.136 29.872 16.704C29.744 16.256 29.568 15.896 29.344 15.624C29.12 15.336 28.864 15.128 28.576 15C28.288 14.872 27.992 14.808 27.688 14.808C27.384 14.808 27.088 14.864 26.8 14.976C26.528 15.088 26.28 15.28 26.056 15.552C25.848 15.824 25.68 16.184 25.552 16.632C25.424 17.064 25.36 17.616 25.36 18.288C25.36 19.456 25.6 20.312 26.08 20.856C26.56 21.4 27.112 21.672 27.736 21.672C28.04 21.672 28.328 21.616 28.6 21.504C28.888 21.376 29.136 21.184 29.344 20.928C29.568 20.656 29.744 20.304 29.872 19.872C30 19.44 30.064 18.912 30.064 18.288ZM48.0258 18.168C48.0258 19.112 47.8658 19.96 47.5457 20.712C47.2417 21.464 46.8177 22.104 46.2737 22.632C45.7297 23.16 45.0898 23.568 44.3537 23.856C43.6177 24.128 42.8257 24.264 41.9777 24.264C41.1297 24.264 40.3377 24.136 39.6017 23.88C38.8817 23.608 38.2577 23.224 37.7297 22.728C37.2017 22.232 36.7857 21.624 36.4817 20.904C36.1777 20.168 36.0257 19.336 36.0257 18.408C36.0257 17.432 36.1777 16.56 36.4817 15.792C36.8017 15.024 37.2337 14.376 37.7777 13.848C38.3217 13.32 38.9617 12.92 39.6977 12.648C40.4337 12.36 41.2257 12.216 42.0738 12.216C42.9218 12.216 43.7057 12.344 44.4257 12.6C45.1617 12.856 45.7937 13.24 46.3217 13.752C46.8498 14.248 47.2657 14.864 47.5697 15.6C47.8738 16.336 48.0258 17.192 48.0258 18.168ZM44.3777 18.288C44.3777 17.664 44.3137 17.136 44.1858 16.704C44.0577 16.256 43.8817 15.896 43.6577 15.624C43.4337 15.336 43.1777 15.128 42.8897 15C42.6017 14.872 42.3057 14.808 42.0017 14.808C41.6977 14.808 41.4017 14.864 41.1137 14.976C40.8417 15.088 40.5937 15.28 40.3697 15.552C40.1617 15.824 39.9937 16.184 39.8657 16.632C39.7377 17.064 39.6737 17.616 39.6737 18.288C39.6737 19.456 39.9137 20.312 40.3937 20.856C40.8737 21.4 41.4257 21.672 42.0497 21.672C42.3537 21.672 42.6417 21.616 42.9137 21.504C43.2018 21.376 43.4497 21.184 43.6577 20.928C43.8817 20.656 44.0577 20.304 44.1858 19.872C44.3137 19.44 44.3777 18.912 44.3777 18.288ZM58.2835 6.84H61.8355V24H59.3875L59.0275 22.752H58.9075C58.6835 23.104 58.2915 23.448 57.7315 23.784C57.1875 24.104 56.4675 24.264 55.5715 24.264C54.8195 24.264 54.1235 24.128 53.4835 23.856C52.8435 23.568 52.2915 23.168 51.8275 22.656C51.3635 22.128 50.9955 21.496 50.7235 20.76C50.4675 20.008 50.3395 19.168 50.3395 18.24C50.3395 17.328 50.4595 16.504 50.6995 15.768C50.9395 15.016 51.2835 14.384 51.7315 13.872C52.1955 13.344 52.7635 12.936 53.4355 12.648C54.1075 12.36 54.8675 12.216 55.7155 12.216C56.2435 12.216 56.7395 12.296 57.2035 12.456C57.6835 12.6 58.0435 12.784 58.2835 13.008V6.84ZM58.2835 15.6C58.1395 15.408 57.9155 15.224 57.6115 15.048C57.3075 14.872 56.9715 14.784 56.6035 14.784C56.2355 14.784 55.8915 14.848 55.5715 14.976C55.2515 15.088 54.9635 15.28 54.7075 15.552C54.4675 15.824 54.2755 16.176 54.1315 16.608C53.9875 17.024 53.9155 17.544 53.9155 18.168C53.9155 19.368 54.1475 20.256 54.6115 20.832C55.0915 21.392 55.7075 21.672 56.4595 21.672C56.9235 21.672 57.3075 21.552 57.6115 21.312C57.9315 21.072 58.1555 20.816 58.2835 20.544V15.6ZM64.1699 12.48H68.0579L69.9539 17.616L70.7219 20.424H70.8179L71.5379 17.568L73.1939 12.48H76.8179L72.6659 24.216C72.4419 24.872 72.1779 25.512 71.8739 26.136C71.5699 26.76 71.1939 27.344 70.7459 27.888C70.3139 28.432 69.7859 28.928 69.1619 29.376C68.5379 29.824 67.7859 30.192 66.9059 30.48L65.4419 27.72C66.3859 27.384 67.1619 26.904 67.7699 26.28C68.3939 25.656 68.8099 24.936 69.0179 24.12L69.0659 23.928L64.1699 12.48Z" fill="#F5F5F5"/>
<path d="M78.7628 22.152C78.7628 21.544 78.9628 21.048 79.3628 20.664C79.7788 20.264 80.2668 20.064 80.8268 20.064C81.3868 20.064 81.8668 20.264 82.2668 20.664C82.6668 21.048 82.8668 21.544 82.8668 22.152C82.8668 22.808 82.6668 23.328 82.2668 23.712C81.8668 24.08 81.3868 24.264 80.8268 24.264C80.2668 24.264 79.7788 24.08 79.3628 23.712C78.9628 23.328 78.7628 22.808 78.7628 22.152Z" fill="#EAAB00"/>
</svg>
