<svg width="40" height="41" viewBox="0 0 40 41" fill="none" xmlns="http://www.w3.org/2000/svg">
<rect width="40" height="41" rx="20" fill="#EB5757"/>
<g clip-path="url(#clip0_152_2838)">
<path d="M33.6061 15.2972H26.9291L20.8237 5.6196C20.5588 5.20653 20.1128 5 19.6667 5C19.2206 5 18.7746 5.20653 18.5097 5.63435L12.4043 15.2972H5.72731C4.96065 15.2972 4.33337 15.961 4.33337 16.7724C4.33337 16.9052 4.34731 17.0379 4.38913 17.1707L7.92974 30.8462C8.25034 32.0854 9.32368 33 10.6061 33H28.7273C30.0097 33 31.0831 32.0854 31.4176 30.8462L34.9582 17.1707L35 16.7724C35 15.961 34.3728 15.2972 33.6061 15.2972ZM19.6667 9.10116L23.5697 15.2972H15.7637L19.6667 9.10116ZM28.7273 30.0495L10.62 30.0643L7.55337 18.2476H31.794L28.7273 30.0495ZM19.6667 21.1981C18.1334 21.1981 16.8788 22.5258 16.8788 24.1486C16.8788 25.7713 18.1334 27.0991 19.6667 27.0991C21.2 27.0991 22.4546 25.7713 22.4546 24.1486C22.4546 22.5258 21.2 21.1981 19.6667 21.1981Z" fill="white"/>
</g>
<defs>
<clipPath id="clip0_152_2838">
<rect width="32" height="32" fill="white" transform="translate(3 1)"/>
</clipPath>
</defs>
</svg>
